# xmcd
#
# Track frame offsets:
# 150
# 18151
# 33833
# 57453
# 74495
# 97149
# 112662
# 133506
# 150553
# 165479
# 179527
# 196490
#
# Disc length: 3160 seconds
#
# Revision: 0
# Processed by: cddbd v1.5PL3 Copyright (c) Steve Scherf et al.
# Submitted via: Axialis_AX_CDPlayer 2.6
#
DISCID=9b0c560c
DTITLE=Tab Benoit - Tab Benoit
DYEAR=1900
DGENRE=
TTITLE0=Nightlife
TTITLE1=Hot Tamale Baby
TTITLE2=Ain't Gonna Do It
TTITLE3=Cross The Line
TTITLE4=Garage Man
TTITLE5=I've Been Mistreated
TTITLE6=Live Swampland Jam
TTITLE7=Mother Earth
TTITLE8=She's My Number One
TTITLE9=Too Sweet For Me
TTITLE10=Twenty-Nine ways
TTITLE11=Funkyside
EXTD=
EXTT0=
EXTT1=
EXTT2=
EXTT3=
EXTT4=
EXTT5=
EXTT6=
EXTT7=
EXTT8=
EXTT9=
EXTT10=
EXTT11=
PLAYORDER=
